<?xml version="1.0" standalone="no"?>
<!DOCTYPE svg PUBLIC "-//W3C//DTD SVG 20010904//EN"
 "http://www.w3.org/TR/2001/REC-SVG-20010904/DTD/svg10.dtd">
<svg version="1.0" xmlns="http://www.w3.org/2000/svg"
 width="651.000000pt" height="326.000000pt" viewBox="0 0 651.000000 326.000000"
 preserveAspectRatio="xMidYMid meet">

<g transform="translate(0.000000,326.000000) scale(0.100000,-0.100000)"
fill="#000000" stroke="none">
<path d="M894 3020 c-12 -4 -34 -24 -50 -44 -29 -34 -31 -35 -68 -24 -76 24
-181 -27 -217 -106 -26 -57 -24 -98 5 -129 l25 -27 -44 -30 c-59 -40 -90 -105
-76 -156 6 -21 24 -54 40 -75 26 -31 28 -39 16 -49 -22 -18 -28 -65 -12 -103
16 -38 63 -78 121 -102 l37 -16 -30 -35 c-25 -28 -31 -43 -31 -82 0 -84 56
-142 137 -142 21 0 48 7 61 15 21 15 23 14 52 -19 39 -44 86 -59 161 -54 47 3
66 10 98 36 l39 32 21 -36 c14 -23 35 -41 61 -51 30 -12 45 -26 60 -58 27 -56
86 -97 149 -103 63 -6 105 16 132 69 20 41 21 41 36 19 12 -18 13 -26 3 -44
-23 -43 -9 -87 38 -123 49 -37 88 -42 149 -19 21 8 66 17 100 21 l61 6 35 -58
c64 -107 85 -156 80 -190 l-5 -31 -53 5 c-150 16 -225 -101 -142 -222 25 -37
69 -75 94 -80 1 -1 -9 -23 -23 -50 -22 -43 -25 -60 -21 -120 2 -39 10 -84 18
-100 13 -28 19 -30 74 -33 79 -4 135 13 184 55 l40 34 38 -38 c35 -35 96 -63
137 -63 10 0 38 -18 64 -39 26 -21 101 -76 167 -122 66 -45 158 -113 205 -149
106 -84 178 -125 255 -145 83 -21 122 -20 135 6 10 18 6 26 -33 63 -24 24
-131 105 -238 181 -227 162 -311 230 -395 317 -52 53 -63 70 -68 108 -3 25 -8
54 -11 65 -5 16 3 24 44 43 65 29 103 90 109 172 4 48 1 60 -19 83 -29 33
-111 50 -179 37 -25 -5 -48 -9 -52 -10 -5 0 -8 15 -8 33 -1 17 -6 48 -13 67
-16 46 0 140 29 172 33 35 54 83 54 123 0 22 8 43 20 55 63 63 -21 230 -116
230 -19 0 -27 15 -58 106 l-35 107 25 30 c14 16 23 36 19 44 -3 8 6 28 20 45
14 16 25 34 25 39 0 5 11 11 25 15 14 3 38 22 55 40 25 29 30 43 30 84 0 64
-16 97 -52 109 -55 19 -138 -39 -153 -107 l-6 -29 -44 15 c-43 14 -52 32 -16
32 44 0 79 84 61 149 -21 81 -84 120 -136 86 -30 -19 -66 -98 -62 -134 2 -16
-6 -34 -21 -49 -19 -19 -22 -30 -18 -58 5 -30 2 -36 -24 -50 -55 -28 -59 -96
-8 -132 10 -7 19 -22 19 -33 0 -63 78 -117 129 -90 33 18 57 -2 75 -63 21 -72
21 -71 -22 -72 -41 -2 -109 -19 -132 -33 -8 -6 -14 -24 -13 -43 1 -29 -4 -37
-37 -55 l-39 -21 10 25 c5 13 9 36 9 50 0 14 11 38 25 55 14 16 28 41 31 55
15 58 -46 163 -95 163 -38 0 -71 -23 -91 -66 l-21 -43 -36 25 c-20 13 -42 24
-49 24 -17 0 -17 0 2 39 32 65 1 128 -88 175 -29 16 -55 30 -57 32 -2 2 8 17
22 34 96 114 -34 287 -159 211 l-30 -18 -21 32 c-15 22 -37 38 -70 50 -52 18
-57 20 -99 50 -22 16 -44 20 -106 20 l-78 0 2 47 c0 29 -6 59 -18 79 -33 56
-111 83 -170 59z m106 -37 c56 -33 69 -104 31 -169 -27 -46 -27 -48 12 -27 46
24 179 25 204 1 16 -17 16 -18 -1 -18 -26 0 -103 -47 -116 -70 -5 -10 -10 -30
-10 -44 0 -23 -4 -26 -36 -26 -22 0 -47 9 -68 25 -18 14 -43 25 -56 25 -12 0
-29 8 -37 18 -8 9 -12 12 -9 5 10 -19 -12 -25 -23 -6 -6 10 -11 13 -11 8 0 -6
5 -16 11 -22 8 -8 7 -13 -3 -18 -7 -5 -10 -5 -6 0 4 4 1 13 -6 21 -18 17 -40
174 -31 221 14 77 90 115 155 76z m-216 -65 c14 -6 28 -18 30 -27 12 -45 39
-211 35 -216 -3 -2 -30 4 -60 14 -30 10 -81 22 -114 26 -74 9 -67 7 -87 24
-42 36 -1 132 72 169 49 24 86 28 124 10z m587 -191 c19 -12 40 -34 46 -49 11
-22 9 -34 -21 -99 -19 -41 -38 -87 -41 -102 -4 -15 -11 -27 -15 -27 -12 0
-189 181 -195 200 -9 28 4 49 49 75 55 33 129 34 177 2z m805 1 c-1 -7 -14
-26 -28 -41 -15 -16 -24 -35 -21 -43 3 -8 0 -14 -5 -14 -13 0 -5 49 10 67 6 7
18 13 27 14 12 0 12 2 2 6 -11 5 -11 7 0 14 18 11 18 11 15 -3z m58 -45 c3 -7
1 -13 -5 -13 -6 0 -7 -5 -4 -11 4 -5 8 -21 9 -34 2 -16 -1 -22 -11 -18 -9 4
-10 9 -4 17 5 6 7 16 3 22 -8 12 -43 28 -54 26 -17 -4 -7 17 10 21 30 7 51 3
56 -10z m-1451 -4 c20 -5 37 -14 37 -19 0 -5 8 -10 18 -13 12 -3 3 -10 -29
-24 -57 -26 -86 -62 -95 -118 -8 -57 -36 -81 -102 -88 -52 -6 -53 -6 -82 35
-43 59 -41 106 6 158 59 65 159 94 247 69z m807 -4 c32 -17 60 -61 60 -95 0
-38 -30 -81 -78 -111 -39 -25 -42 -29 -21 -29 38 0 142 -54 172 -89 36 -43 34
-73 -4 -105 -49 -41 -102 -36 -180 17 -47 31 -65 50 -71 73 -10 38 -54 85 -74
77 -8 -3 -14 0 -14 6 0 6 6 11 13 11 8 0 7 3 -3 9 -18 12 -33 3 -26 -15 3 -8
-1 -14 -9 -14 -25 0 64 198 107 236 51 47 81 53 128 29z m-584 -42 l37 -37
-34 -14 c-50 -20 -78 -51 -91 -99 -6 -24 -14 -43 -18 -43 -4 0 -24 -11 -44
-25 -34 -23 -39 -24 -70 -11 -40 17 -61 62 -53 113 8 47 30 69 114 114 90 48
113 48 159 2z m1186 9 c-7 -2 -12 -12 -12 -23 0 -10 -4 -19 -9 -19 -6 0 -8 12
-7 28 5 34 3 33 23 25 11 -4 12 -8 5 -11z m196 -69 c-10 -2 -18 -8 -18 -13 0
-5 7 -7 15 -4 10 4 14 1 12 -7 -2 -8 1 -4 7 9 5 12 14 22 19 22 4 0 6 -4 3 -9
-3 -5 0 -11 8 -14 17 -7 15 -62 -2 -79 -9 -9 -12 -5 -12 18 0 22 3 26 10 14 8
-13 10 -12 10 3 0 9 -5 17 -11 17 -5 0 -7 6 -3 13 4 6 -3 3 -15 -8 -18 -15
-24 -17 -30 -6 -5 8 -13 11 -19 7 -6 -3 -14 -1 -17 5 -8 12 23 39 45 38 11 -1
10 -3 -2 -6z m-1192 -28 c27 -14 65 -41 84 -61 19 -21 28 -33 20 -29 -8 5 -1
-5 16 -22 19 -20 43 -33 64 -35 43 -4 71 -41 72 -97 1 -62 -53 -109 -143 -126
-85 -16 -189 49 -189 117 0 79 67 133 150 122 28 -4 50 -3 50 2 0 5 -32 9 -70
9 l-71 0 -46 -49 c-47 -48 -47 -48 -102 -44 -72 6 -91 29 -91 107 0 36 6 65
16 80 39 55 156 68 240 26z m927 0 c8 -7 18 -35 22 -60 6 -45 7 -46 25 -30 18
16 21 16 57 -1 67 -33 71 -105 7 -112 -21 -2 -36 4 -54 23 -23 25 -50 33 -50
16 0 -15 -88 -33 -109 -21 -25 13 -33 37 -21 61 13 22 56 25 85 6 39 -27 61
-28 28 -2 -35 28 -58 83 -48 115 7 23 37 26 58 5z m244 -47 c-3 -8 -6 -5 -6 6
-1 11 2 17 5 13 3 -3 4 -12 1 -19z m-39 -2 c-7 -8 -15 -12 -17 -11 -5 6 10 25
20 25 5 0 4 -6 -3 -14z m57 -25 c3 -5 0 -13 -6 -17 -7 -4 -9 -3 -5 4 3 5 0 13
-6 15 -9 4 -10 6 -1 6 6 1 14 -3 18 -8z m-1461 -85 c9 -49 37 -69 105 -74 50
-4 60 -7 64 -26 3 -11 9 -31 12 -43 11 -36 -30 -46 -139 -34 -108 12 -127 26
-134 100 -4 47 -2 53 28 81 41 39 56 38 64 -4z m-193 -25 c39 -24 69 -49 77
-67 7 -16 17 -36 21 -43 13 -26 58 -53 86 -53 15 0 23 -3 19 -7 -5 -3 -11 -15
-12 -26 -8 -46 -80 -182 -111 -208 -105 -88 -231 54 -140 158 17 19 42 38 55
41 33 8 30 24 -4 24 -16 0 -56 14 -90 31 -104 51 -130 126 -59 169 48 29 85
25 158 -19z m1455 -16 c15 -16 34 -25 53 -25 62 0 73 -66 15 -92 -21 -10 -28
-8 -50 13 -15 13 -32 38 -39 54 l-13 30 -6 -25 c-3 -14 -7 -34 -8 -45 -3 -15
-10 -19 -28 -17 -38 6 -61 32 -58 65 2 25 11 33 48 48 58 23 59 23 86 -6z
m-672 -99 c38 -16 76 -64 76 -97 l0 -22 23 21 c78 73 204 39 255 -70 32 -68
34 -85 17 -118 -20 -39 -49 -39 -120 1 -31 17 -77 37 -103 44 -27 7 -46 17
-44 24 1 7 -2 10 -8 6 -5 -3 -13 1 -16 9 -9 23 -24 20 -24 -4 0 -11 6 -20 13
-20 9 0 9 -2 -1 -8 -8 -5 -10 -16 -6 -27 6 -14 4 -16 -7 -10 -8 5 -11 5 -6 -1
5 -5 14 -9 20 -9 8 0 12 -23 11 -70 -2 -79 -27 -146 -67 -184 -67 -61 -225 27
-203 114 10 38 69 99 123 126 26 13 54 30 61 37 19 17 24 15 17 -8 -10 -31 2
-24 19 12 15 29 15 33 1 47 -15 15 -15 14 -10 -1 5 -13 -12 -9 -85 20 l-91 37
6 35 c3 19 14 40 23 45 9 6 32 26 52 46 19 20 36 37 38 38 1 0 18 -5 36 -13z
m439 -21 c-3 -9 -8 -14 -10 -11 -3 3 -2 9 2 15 9 16 15 13 8 -4z m57 -46 c0
-5 -6 -9 -12 -9 -9 0 -8 -4 2 -11 13 -9 13 -10 0 -6 -10 2 -14 14 -13 33 1 16
-1 21 -3 12 -3 -10 -9 -18 -14 -18 -5 0 -8 -16 -6 -35 1 -19 1 -35 -1 -35 -2
0 -15 12 -29 27 -28 31 -39 27 -25 -10 7 -17 7 -28 0 -32 -5 -4 -9 -3 -8 2 3
19 -2 34 -10 29 -5 -4 -8 2 -6 11 2 10 4 21 4 24 1 4 13 9 27 12 17 3 24 1 21
-8 -3 -6 -2 -18 3 -24 5 -9 8 -4 8 13 0 14 -8 31 -16 38 -12 10 -14 10 -8 1 5
-9 0 -13 -14 -13 -19 0 -20 2 -6 15 15 15 46 11 46 -7 0 -5 5 -6 10 -3 6 4 8
11 5 16 -4 5 -1 9 5 9 6 0 8 6 5 13 -4 6 3 1 14 -12 12 -13 21 -27 21 -32z
m-845 7 c39 -27 110 -42 150 -32 21 5 25 3 25 -16 -1 -79 -147 -115 -255 -64
-49 23 -87 58 -113 104 l-13 23 59 -7 c37 -4 67 -2 78 5 26 15 29 14 69 -13z
m-27 -235 c-2 -16 -18 -35 -45 -55 -35 -24 -52 -29 -93 -28 -58 1 -108 25
-129 63 -13 23 -10 34 29 136 l43 110 99 -100 c80 -81 98 -105 96 -126z m312
87 c0 -5 5 -6 10 -3 6 3 10 1 10 -4 0 -6 6 -11 14 -11 8 0 18 -4 21 -10 4 -6
-1 -7 -11 -3 -13 5 -15 3 -9 -8 6 -11 5 -12 -6 -1 -17 16 -26 15 -32 -2 -4
-11 -1 -13 11 -10 19 5 18 5 -67 -52 -25 -17 -55 -45 -66 -62 -27 -42 -58 -41
-101 2 -28 28 -34 42 -34 76 0 53 15 80 44 80 27 0 92 25 100 39 7 10 116 -19
116 -31z m798 -8 c42 -26 57 -64 37 -93 -8 -12 -15 -32 -15 -45 0 -22 -2 -23
-17 -11 -11 10 -14 10 -9 2 4 -7 3 -13 -1 -13 -5 0 -15 6 -22 13 -11 10 -13
10 -7 0 7 -12 -6 -18 -29 -13 -5 1 -7 -2 -3 -6 4 -4 -16 -18 -45 -31 -28 -13
-60 -31 -69 -40 -15 -14 -19 -13 -42 11 -33 32 -33 70 -1 101 19 20 34 25 75
25 l51 0 -37 35 c-44 41 -39 50 32 70 65 18 64 18 102 -5z m-318 -81 c-7 -16
-17 -29 -22 -29 -7 0 -7 4 0 13 6 6 14 30 18 52 6 31 9 35 12 17 2 -13 -2 -37
-8 -53z m-323 36 c0 -8 -4 -15 -8 -15 -4 0 -9 7 -13 15 -3 9 0 15 8 15 7 0 13
-7 13 -15z m160 -46 c23 -16 46 -29 53 -29 6 0 20 -21 32 -47 18 -42 19 -52 8
-100 -6 -29 -15 -53 -19 -53 -4 0 -23 7 -41 16 -18 9 -58 17 -89 18 -54 1 -57
2 -74 39 -17 34 -32 188 -20 209 7 12 107 -23 150 -53z m654 4 c64 -38 83
-173 24 -173 -6 0 -35 18 -65 40 -30 22 -65 47 -77 55 -19 13 -21 19 -12 42
20 53 75 68 130 36z m-451 -85 c0 -23 -3 -29 -11 -21 -6 6 -8 20 -4 32 9 30
15 26 15 -11z m389 -47 c16 -12 41 -36 56 -53 22 -26 26 -39 22 -70 -5 -40
-41 -98 -60 -98 -44 0 -97 84 -97 152 l0 43 -28 -49 c-15 -27 -39 -58 -53 -69
-26 -18 -28 -18 -63 -2 -41 20 -70 66 -61 95 8 25 50 55 111 78 42 16 55 17
96 6 26 -6 60 -21 77 -33z m-319 -71 c0 -11 -2 -20 -5 -20 -2 0 -9 9 -15 20
-9 16 -8 20 5 20 8 0 15 -9 15 -20z m-320 -40 c-6 -11 -8 -21 -5 -21 3 -1 8
-2 13 -3 4 0 19 -12 32 -25 22 -21 23 -22 3 -12 -12 6 -23 7 -25 2 -2 -4 -14
-12 -27 -16 -16 -5 -21 -4 -17 4 4 6 13 11 21 11 7 0 16 8 20 18 5 14 4 15 -6
5 -20 -20 -28 -16 -25 12 2 13 -1 22 -6 19 -6 -4 -8 -17 -5 -31 3 -15 1 -21
-5 -15 -25 25 -6 71 30 72 10 0 10 -5 2 -20z m55 0 c17 -18 17 -20 2 -14 -9 3
-17 10 -17 16 0 5 -5 6 -12 2 -7 -4 -8 -3 -4 4 9 16 10 15 31 -8z m146 -42 c8
-16 5 -18 -26 -18 -38 0 -44 14 -24 52 11 21 12 21 26 2 8 -10 19 -27 24 -36z
m205 -24 c45 -19 56 -18 97 10 l35 24 12 -29 c7 -16 9 -44 6 -62 -6 -30 -10
-34 -37 -35 -17 0 -42 -8 -56 -17 -13 -9 -26 -15 -28 -13 -3 3 -54 91 -97 168
l-20 35 28 -34 c15 -18 42 -40 60 -47z m-443 5 c5 -3 8 -10 8 -15 0 -5 7 -9
16 -9 9 0 18 -6 21 -13 5 -15 -3 -15 -31 -1 -43 23 -59 46 -51 71 l7 23 11
-25 c6 -14 14 -28 19 -31z m639 -178 c29 -32 48 -87 48 -138 0 -24 -9 -41 -35
-65 -19 -18 -49 -58 -66 -88 -17 -30 -28 -47 -25 -37 4 11 2 16 -5 11 -6 -3
-9 -17 -7 -29 4 -17 1 -22 -9 -18 -8 3 -11 8 -8 11 3 3 -3 15 -12 26 -17 20
-17 20 1 6 18 -14 19 -14 7 8 -6 12 -15 22 -20 22 -5 0 -16 20 -25 44 -9 24
-26 52 -36 61 -32 29 -22 106 22 171 47 69 116 74 170 15z m280 -183 c23 -11
32 -49 25 -100 -10 -75 -74 -133 -159 -144 l-49 -7 25 -26 c14 -14 30 -39 35
-54 16 -41 13 -121 -5 -166 -20 -50 -49 -59 -108 -32 -78 34 -127 122 -129
232 -1 38 -6 65 -11 62 -5 -4 -6 -1 -2 5 4 7 17 12 29 12 18 0 19 -2 7 -10
-18 -12 -2 -12 25 0 17 7 17 9 3 9 -12 1 -15 6 -11 19 5 14 3 15 -8 5 -7 -7
-18 -13 -23 -13 -6 0 -2 7 8 15 11 8 17 18 13 21 -7 8 30 82 57 112 59 66 206
98 278 60z m-537 2 c22 -5 50 -20 62 -34 24 -29 68 -137 72 -179 1 -5 6 -5 13
-1 7 4 8 3 4 -5 -6 -9 -12 -9 -24 1 -12 9 -12 6 2 -10 10 -12 20 -36 21 -54 1
-18 5 -61 9 -95 6 -49 5 -66 -9 -87 -26 -39 -109 -76 -172 -76 -62 0 -72 12
-80 100 -8 83 21 144 80 170 24 11 54 21 65 23 50 7 32 18 -20 12 -93 -12
-164 22 -194 92 -19 45 -17 76 7 107 31 40 91 53 164 36z"/>
<path d="M2195 2680 c-3 -5 -1 -10 4 -10 6 0 11 5 11 10 0 6 -2 10 -4 10 -3 0
-8 -4 -11 -10z"/>
<path d="M870 2175 c-8 -9 -8 -15 -2 -15 6 0 13 6 15 13 4 10 6 10 6 0 1 -18
21 -16 21 2 0 8 -6 15 -14 15 -7 0 -19 -7 -26 -15z"/>
<path d="M1651 1654 c0 -11 3 -14 6 -6 3 7 2 16 -1 19 -3 4 -6 -2 -5 -13z"/>
<path d="M2298 1083 c7 -3 16 -2 19 1 4 3 -2 6 -13 5 -11 0 -14 -3 -6 -6z"/>
<path d="M2355 1040 c27 -12 43 -12 25 0 -8 5 -22 9 -30 9 -10 0 -8 -3 5 -9z"/>
<path d="M2256 1015 c4 -8 8 -15 10 -15 2 0 4 7 4 15 0 8 -4 15 -10 15 -5 0
-7 -7 -4 -15z"/>
<path d="M2162 1041 c-11 -6 -11 -10 0 -19 9 -7 19 -8 28 -2 12 8 12 10 -3 10
-10 0 -15 5 -12 10 7 12 4 12 -13 1z"/>
</g>
</svg>
